<svg xmlns="http://www.w3.org/2000/svg" xmlns:xlink="http://www.w3.org/1999/xlink" width="800" zoomAndPan="magnify" viewBox="0 0 600 599.999999" height="800" preserveAspectRatio="xMidYMid meet" version="1.0"><defs><g/><clipPath id="399885a4bf"><path d="M 95 108 L 505 108 L 505 458 L 95 458 Z M 95 108 " clip-rule="nonzero"/></clipPath><clipPath id="fa72aeb70c"><path d="M 300 602.070312 L 10.96875 313.039062 L 300 24.011719 L 589.03125 313.039062 Z M 300 602.070312 " clip-rule="nonzero"/></clipPath><clipPath id="c7cfeeca47"><path d="M 300 602.070312 L 10.96875 313.039062 L 300 24.011719 L 589.03125 313.039062 Z M 300 602.070312 " clip-rule="nonzero"/></clipPath><clipPath id="03cd0d216e"><path d="M 147 148 L 206 148 L 206 313 L 147 313 Z M 147 148 " clip-rule="nonzero"/></clipPath><clipPath id="c3ecadab5a"><path d="M 254.992188 193.121094 L 147.574219 312.96875 L 97.765625 268.328125 L 205.183594 148.476562 Z M 254.992188 193.121094 " clip-rule="nonzero"/></clipPath><clipPath id="ed8da63be3"><path d="M 201.328125 252.992188 L 147.667969 312.867188 L 151.523438 208.351562 L 205.183594 148.476562 Z M 201.328125 252.992188 " clip-rule="nonzero"/></clipPath><clipPath id="34819ad20b"><path d="M 383.183594 277.859375 L 448.917969 277.859375 L 448.917969 468.894531 L 383.183594 468.894531 Z M 383.183594 277.859375 " clip-rule="nonzero"/></clipPath><clipPath id="a148884ef0"><path d="M 383.183594 373.40625 L 383.183594 468.894531 L 448.917969 373.40625 L 448.917969 277.917969 Z M 383.183594 373.40625 " clip-rule="nonzero"/></clipPath></defs><g clip-path="url(#399885a4bf)"><g clip-path="url(#fa72aeb70c)"><g clip-path="url(#c7cfeeca47)"><path fill="#dfdfdf" d="M 110.558594 235.921875 C 100.609375 260.464844 95.566406 286.199219 95.699219 312.867188 C 95.832031 339.53125 100.742188 365.398438 110.558594 389.808594 C 120.773438 415.148438 135.894531 437.964844 155.398438 457.46875 L 167.335938 445.527344 C 149.429688 427.617188 135.5 406.789062 126.210938 383.441406 C 117.058594 361.023438 112.414062 337.277344 112.414062 312.867188 C 112.414062 288.457031 117.058594 264.710938 126.210938 242.289062 C 135.632812 219.074219 149.429688 198.113281 167.335938 180.203125 C 185.246094 162.292969 206.074219 148.363281 229.421875 139.078125 C 251.84375 129.925781 275.589844 125.28125 300 125.28125 C 324.410156 125.28125 348.15625 129.925781 370.574219 139.078125 C 393.792969 148.496094 414.753906 162.292969 432.660156 180.203125 C 450.570312 198.113281 464.5 218.941406 473.789062 242.289062 C 482.941406 264.710938 487.585938 288.457031 487.585938 312.867188 C 487.585938 337.277344 482.941406 361.023438 473.789062 383.441406 C 464.367188 406.660156 450.570312 427.617188 432.660156 445.527344 C 432.660156 445.527344 432.527344 445.660156 432.527344 445.660156 L 444.46875 457.601562 C 444.46875 457.601562 444.601562 457.46875 444.601562 457.46875 C 464.101562 437.964844 479.226562 415.148438 489.441406 389.808594 C 499.390625 365.269531 504.433594 339.53125 504.300781 312.867188 C 504.300781 286.332031 499.257812 260.332031 489.441406 235.921875 C 479.226562 210.582031 464.101562 187.765625 444.601562 168.265625 C 425.101562 148.761719 402.28125 133.640625 376.945312 123.425781 C 352.402344 113.472656 326.664062 108.433594 300 108.566406 C 273.46875 108.566406 247.464844 113.605469 223.054688 123.425781 C 197.71875 133.640625 174.898438 148.761719 155.398438 168.265625 C 135.894531 187.765625 120.90625 210.449219 110.558594 235.921875 Z M 110.558594 235.921875 " fill-opacity="1" fill-rule="nonzero"/></g></g></g><g clip-path="url(#03cd0d216e)"><g clip-path="url(#c3ecadab5a)"><g clip-path="url(#ed8da63be3)"><path fill="#00df5e" d="M 254.992188 193.121094 L 147.75 312.773438 L 97.941406 268.132812 L 205.183594 148.476562 Z M 254.992188 193.121094 " fill-opacity="1" fill-rule="nonzero"/></g></g></g><g clip-path="url(#34819ad20b)"><g clip-path="url(#a148884ef0)"><path fill="#00df5e" d="M 383.183594 468.894531 L 383.183594 277.859375 L 448.917969 277.859375 L 448.917969 468.894531 Z M 383.183594 468.894531 " fill-opacity="1" fill-rule="nonzero"/></g></g><g fill="#00df5e" fill-opacity="1"><g transform="translate(249.36327, 350.733228)"><g><path d="M 56.453125 -47.296875 L 28.984375 -47.296875 L 28.984375 0 L 13.484375 0 L 13.484375 -116.921875 L 52.203125 -116.921875 C 65.367188 -116.921875 75.5 -113.921875 82.59375 -107.921875 C 89.6875 -101.929688 93.234375 -93.207031 93.234375 -81.75 C 93.234375 -74.46875 91.265625 -68.125 87.328125 -62.71875 C 83.398438 -57.3125 77.925781 -53.269531 70.90625 -50.59375 L 98.375 -0.96875 L 98.375 0 L 81.828125 0 Z M 28.984375 -59.90625 L 52.6875 -59.90625 C 60.34375 -59.90625 66.429688 -61.882812 70.953125 -65.84375 C 75.472656 -69.8125 77.734375 -75.113281 77.734375 -81.75 C 77.734375 -88.976562 75.578125 -94.519531 71.265625 -98.375 C 66.960938 -102.226562 60.738281 -104.179688 52.59375 -104.234375 L 28.984375 -104.234375 Z M 28.984375 -59.90625 "/></g></g></g></svg>